Patient4_TMGait_0pt3_01_left_09_GRF.mot
version=1
nRows=38
nColumns=19
inDegrees=no
endheader
time	F1x	F1y	F1z	M1x	M1y	M1z	F2x	F2y	F2z	M2x	M2y	M2z	EC1x	EC1y	EC1z	EC2x	EC2y	EC2z
16.42	9.4112	-3.3464	-0.31688	0.74359	2.2565	-7.5326	-32.1941	737.268	-45.9849	260.7683	62.1513	745.8254	-0.0592	0.0182	-0.0073	-0.0462	0.0165	0.9585
16.4397	6.3578	-2.1564	-0.16281	0.47436	1.4892	-4.9645	-32.985	743.9373	-45.1555	263.2066	60.865	749.8132	-0.0592	0.0182	-0.0073	-0.0462	0.0165	0.9585
16.4594	3.7516	-1.1292	-0.025492	0.23978	0.81974	-2.7687	-33.632	753.9309	-44.3961	266.8728	59.6224	756.3972	-0.0592	0.0182	-0.0073	-0.0462	0.0165	0.9585
16.4791	1.7517	-0.33035	0.087264	0.056128	0.29122	-1.0798	-34.0682	767.3504	-43.8202	271.7784	58.532	765.7529	-0.0592	0.0182	-0.0073	-0.0462	0.0165	0.9585
16.4989	0.35569	0.22955	0.1766	-0.072016	-0.097754	0.094445	-34.2889	783.6761	-43.5012	277.6995	57.6539	777.4862	-0.0592	0.0182	-0.0073	-0.0462	0.0165	0.9585
16.5186	-0.52439	0.56479	0.25074	-0.14615	-0.37106	0.81022	-34.3313	801.7459	-43.4567	284.1807	56.9953	790.6047	-0.0592	0.0182	-0.0073	-0.0462	0.0165	0.9585
16.5383	-1.0098	0.68869	0.31655	-0.16646	-0.55428	1.136	-34.2261	819.8075	-43.65	290.5677	56.5114	803.5461	-0.0592	0.0182	-0.0073	-0.0462	0.0165	0.9585
16.558	-1.222	0.60214	0.37571	-0.1281	-0.67009	1.1274	-33.9109	835.7552	-43.995	296.1028	56.0877	814.3648	-0.0592	0.0182	-0.0073	-0.0462	0.0165	0.9585
16.5777	-1.2691	0.29097	0.42547	-0.019615	-0.73645	0.82045	-33.2108	847.5371	-44.3609	300.0716	55.5391	821.1039	-0.0592	0.0182	-0.0073	-0.0462	0.0165	0.9585
16.5974	-1.2354	-0.2671	0.46097	0.17264	-0.77017	0.22765	-31.9108	853.5056	-44.5972	301.921	54.6581	822.1559	-0.0592	0.0182	-0.0073	-0.0462	0.0165	0.9585
16.6171	-1.1742	-1.0922	0.47573	0.45977	-0.77823	-0.64962	-29.8245	852.713	-44.5628	301.3554	53.2624	816.5728	-0.0592	0.0182	-0.0073	-0.0462	0.0165	0.9585
16.6369	-1.1125	-2.1837	0.45931	0.84352	-0.75538	-1.796	-26.8243	845.1006	-44.1358	298.3959	51.2118	804.2631	-0.0592	0.0182	-0.0073	-0.0462	0.0165	0.9585
16.6566	-1.0505	-3.4886	0.39711	1.3053	-0.68598	-3.1511	-22.8424	831.4545	-43.2452	293.3529	48.4319	785.9505	-0.0592	0.0182	-0.0073	-0.0462	0.0165	0.9585
16.6763	-0.96397	-4.8613	0.27063	1.7903	-0.54295	-4.5671	-17.8883	813.1996	-41.9093	286.7443	44.9505	762.9913	-0.0592	0.0182	-0.0073	-0.0462	0.0165	0.9585
16.696	-0.80725	-6.0123	0.058497	2.1895	-0.28798	-5.759	-12.0727	792.1006	-40.244	279.1888	40.9118	737.1133	-0.0592	0.0182	-0.0073	-0.0462	0.0165	0.9585
16.7157	-0.5185	-6.4597	-0.25918	2.3243	0.12344	-6.258	-5.6166	769.9642	-38.4505	271.3031	36.5706	710.1392	-0.0592	0.0182	-0.0073	-0.0462	0.0165	0.9585
16.7354	-0.027792	-5.4956	-0.69446	1.9354	0.72992	-5.3696	1.1622	748.4144	-36.7836	263.6281	32.2619	683.7574	-0.0592	0.0182	-0.0073	-0.0462	0.0165	0.9585
16.7551	0.73142	-2.1725	-1.2434	0.68025	1.5522	-2.159	7.878	728.7186	-35.4909	256.5802	28.3352	659.332	-0.0592	0.0182	-0.0073	-0.0462	0.0165	0.9585
16.7749	1.8067	4.6571	-1.8688	-1.8491	2.5715	4.4994	14.1416	711.6651	-34.7544	250.4199	25.082	637.7559	-0.0592	0.0182	-0.0073	-0.0462	0.0165	0.9585
16.7946	3.2033	16.2146	-2.4783	-6.0801	3.6966	15.8037	19.6339	697.4988	-34.6491	245.2299	22.6725	619.3765	-0.0592	0.0182	-0.0073	-0.0462	0.0165	0.9585
16.8143	4.8428	33.5346	-2.9033	-12.3661	4.7286	32.7848	24.1115	685.8493	-35.1412	240.8841	21.1575	603.9506	-0.0592	0.0182	-0.0073	-0.0462	0.0165	0.9585
16.834	6.5086	57.0314	-2.8762	-20.8288	5.3185	55.8783	27.3594	675.6918	-36.1076	237.0286	20.5076	590.6373	-0.0592	0.0182	-0.0073	-0.0462	0.0165	0.9585
16.8537	7.7856	85.8619	-2.013	-31.1252	4.9268	84.3019	29.1827	665.5179	-37.3629	233.1405	20.6372	578.1682	-0.0592	0.0182	-0.0073	-0.0462	0.0165	0.9585
16.8734	8.0915	117.2777	0.103	-42.22	2.9214	115.4135	29.4784	653.8222	-38.6853	228.7008	21.4013	565.2466	-0.0592	0.0182	-0.0073	-0.0462	0.0165	0.9585
16.8931	7.1976	147.3686	3.4672	-52.7008	-0.77426	145.3741	28.3598	639.8342	-39.8687	223.4516	22.5942	551.1436	-0.0592	0.0182	-0.0073	-0.0462	0.0165	0.9585
16.9129	5.3426	173.8419	7.4345	-61.7897	-5.4213	171.8621	26.226	623.9814	-40.7949	217.5532	23.9834	536.0782	-0.0592	0.0182	-0.0073	-0.0462	0.0165	0.9585
16.9326	2.7986	196.9779	11.4143	-69.6317	-10.3259	195.1046	23.6416	607.4045	-41.4155	211.4164	25.3335	520.8325	-0.0592	0.0182	-0.0073	-0.0462	0.0165	0.9585
16.9523	-0.19153	218.4184	15.0301	-76.8444	-15.0217	216.6973	21.1351	591.0038	-41.6925	205.3719	26.425	505.993	-0.0592	0.0182	-0.0073	-0.0462	0.0165	0.9585
16.972	-3.3745	239.8195	18.0625	-84.0326	-19.1999	238.2404	19.0354	574.85	-41.603	199.4634	27.1142	491.4839	-0.0592	0.0182	-0.0073	-0.0462	0.0165	0.9585
16.9917	-6.5037	262.1291	20.484	-91.5283	-22.7494	260.6404	17.4161	558.1818	-41.1667	193.4404	27.3803	476.5796	-0.0592	0.0182	-0.0073	-0.0462	0.0165	0.9585
17.0114	-9.366	285.5453	22.4562	-99.3813	-25.7577	284.0711	16.1452	539.778	-40.4263	186.887	27.2954	460.2108	-0.0592	0.0182	-0.0073	-0.0462	0.0165	0.9585
17.0311	-11.803	309.7143	24.2053	-107.4412	-28.3987	308.1586	14.9974	518.4848	-39.3899	179.4113	26.9387	441.3977	-0.0592	0.0182	-0.0073	-0.0462	0.0165	0.9585
17.0509	-13.7614	334.0593	25.8902	-115.4885	-30.817	332.3108	13.7773	493.6881	-38.0302	170.8078	26.3559	419.6406	-0.0592	0.0182	-0.0073	-0.0462	0.0165	0.9585
17.0706	-15.2267	358.1562	27.5608	-123.3686	-33.0637	356.0847	12.3835	465.5381	-36.3278	161.1287	25.5673	395.0837	-0.0592	0.0182	-0.0073	-0.0462	0.0165	0.9585
17.0903	-16.1907	381.8857	29.2037	-131.0396	-35.1253	379.3301	10.8187	434.8443	-34.2969	150.6448	24.5802	368.4171	-0.0592	0.0182	-0.0073	-0.0462	0.0165	0.9585
17.11	-16.7104	405.3302	30.8018	-138.5313	-36.9944	402.0886	9.1658	402.776	-31.979	139.7438	23.3929	340.6293	-0.0592	0.0182	-0.0073	-0.0462	0.0165	0.9585
17.1297	-16.8955	428.686	32.3659	-145.9107	-38.7022	424.504	7.5625	370.5279	-29.432	128.818	21.9993	312.7316	-0.0592	0.0182	-0.0073	-0.0462	0.0165	0.9585
17.1494	-16.8692	452.2074	33.933	-153.2591	-40.3105	446.7706	6.1521	339.0359	-26.7249	118.167	20.4003	285.5234	-0.0592	0.0182	-0.0073	-0.0462	0.0165	0.9585
